<svg version="1.1" viewBox="100 0 100 100" width="200px" fill="none" stroke="none" stroke-linecap="square" stroke-miterlimit="10" xmlns:xlink="http://www.w3.org/1999/xlink" xmlns="http://www.w3.org/2000/svg"><clipPath id="p.0"><path d="m0 0l346.86353 0l0 103.66929l-346.86353 0l0 -103.66929z" clip-rule="nonzero"/></clipPath><g clip-path="url(#p.0)"><path fill="#000000" fill-opacity="0.0" d="m0 0l346.86353 0l0 103.66929l-346.86353 0z" fill-rule="evenodd"/><path fill="#ffffff" d="m6.9711285 -0.7401575l338.58267 0l0 103.65354l-338.58267 0z" fill-rule="evenodd"/><path stroke="#ffffff" stroke-width="1.0" stroke-linejoin="round" stroke-linecap="butt" d="m6.9711285 -0.7401575l338.58267 0l0 103.65354l-338.58267 0z" fill-rule="evenodd"/><path fill="#0b5394" d="m0 -0.7401575l173.92126 0l0 104.40945l-173.92126 0z" fill-rule="evenodd"/><path stroke="#0b5394" stroke-width="1.0" stroke-linejoin="round" stroke-linecap="butt" d="m0 -0.7401575l173.92126 0l0 104.40945l-173.92126 0z" fill-rule="evenodd"/><path fill="#000000" fill-opacity="0.0" d="m16.519686 12.217848l353.00787 0l0 103.49606l-353.00787 0z" fill-rule="evenodd"/><path fill="#ffffff" d="m39.59781 83.29848q-2.9375 0 -5.28125 -1.109375q-2.328123 -1.125 -3.937498 -3.015625q-1.59375 -1.890625 -2.46875 -4.421875q-0.859375 -2.53125 -0.859375 -5.40625q0 -4.03125 1.625 -7.734379q1.640625 -3.71875 4.390623 -6.5625q2.75 -2.859375 6.328125 -4.578125q3.59375 -1.734375 7.5625 -1.734375q2.953125 0 5.25 1.125q2.296875 1.109375 3.921875 3.0q1.640625 1.890625 2.5 4.453125q0.875 2.5625 0.875 5.4375q0 3.9687538 -1.640625 7.687504q-1.625 3.703125 -4.34375 6.5625q-2.71875 2.84375 -6.34375 4.578125q-3.609375 1.71875 -7.578125 1.71875zm0.828125 -3.84375q2.6875 0 5.3125 -1.3125q2.625 -1.3125 4.671875 -3.515625q2.046875 -2.203125 3.328125 -5.109375q1.28125 -2.921875 1.28125 -6.187504q0 -2.234375 -0.640625 -4.21875q-0.640625 -1.984375 -1.828125 -3.421875q-1.171875 -1.453125 -2.8125 -2.28125q-1.625 -0.828125 -3.609375 -0.828125q-2.6875 0 -5.28125 1.3125q-2.59375 1.3125 -4.671875 3.5625q-2.078125 2.234375 -3.359375 5.171875q-1.2812481 2.9375038 -1.2812481 6.203129q0 2.25 0.6406231 4.203125q0.640625 1.9375 1.8125 3.390625q1.1875 1.4375 2.8125 2.234375q1.640625 0.796875 3.625 0.796875zm29.566193 -26.687504l-4.34375 0l0.703125 -3.453125l4.421875 0l0.0625 -0.390625q0.4375 -1.984375 1.453125 -3.96875q1.03125 -1.984375 2.5625 -3.578125q1.546875 -1.59375 3.5625 -2.578125q2.015625 -1.0 4.515625 -1.0q2.171875 0 3.796875 0.515625q1.640625 0.5 2.734375 1.140625q1.78125 -1.859375 4.1875 -3.0q2.40625 -1.15625 5.46875 -1.15625q1.53125 0 2.875 0.328125q1.34375 0.3125 2.46875 0.765625q1.125 0.4375 1.953125 0.984375q0.828125 0.546875 1.34375 0.921875l-2.625 3.140625q-0.765625 -0.890625 -2.5625 -1.59375q-1.78125 -0.703125 -3.828125 -0.703125q-2.046875 0 -3.625 0.828125q-1.5625 0.828125 -2.71875 2.109375q-1.15625 1.28125 -1.921875 2.953125q-0.765625 1.65625 -1.078125 3.25l-0.203125 1.03125l15.9375 0l-7.09375 33.343754l-4.359375 0l6.328125 -29.890629l-11.578125 0l-6.328125 29.890629l-4.359375 0l6.34375 -29.890629l-9.734375 0l-6.328125 29.890629l-4.359375 0l6.328125 -29.890629zm14.859375 -3.453125q0.3125 -1.671875 0.953125 -3.453125q0.640625 -1.796875 1.53125 -3.015625q-0.828125 -0.765625 -2.140625 -1.015625q-1.3125 -0.265625 -2.328125 -0.265625q-1.734375 0 -3.078125 0.671875q-1.34375 0.671875 -2.28125 1.734375q-0.921875 1.0625 -1.5 2.375q-0.5625 1.296875 -0.828125 2.515625l-0.0625 0.453125l9.734375 0zm36.149673 33.98438q-2.9375 0 -5.3125 -1.109375q-2.359375 -1.125 -4.0 -3.046875q-1.625 -1.921875 -2.5 -4.484375q-0.859375 -2.5625 -0.859375 -5.4375q0 -4.03125 1.59375 -7.734379q1.609375 -3.71875 4.328125 -6.5625q2.71875 -2.859375 6.328125 -4.515625q3.625 -1.671875 7.71875 -1.671875q4.546875 0 7.453125 2.15625q2.921875 2.140625 3.8125 5.78125l-4.46875 1.34375q-0.78125 -2.5625 -2.828125 -4.0q-2.046875 -1.4375 -4.921875 -1.4375q-2.8125 0 -5.40625 1.28125q-2.59375 1.28125 -4.640625 3.453125q-2.046875 2.171875 -3.265625 5.125q-1.21875 2.9375038 -1.21875 6.203129q0 2.296875 0.640625 4.25q0.640625 1.953125 1.78125 3.4375q1.15625 1.46875 2.78125 2.296875q1.640625 0.828125 3.625 0.828125q1.546875 0 3.109375 -0.4375q1.5625 -0.453125 2.96875 -1.25q1.421875 -0.8125 2.53125 -1.828125q1.125 -1.03125 1.703125 -2.171875l4.03125 1.28125q-1.03125 1.78125 -2.625 3.296875q-1.59375 1.5 -3.578125 2.625q-1.984375 1.109375 -4.234375 1.71875q-2.234375 0.609375 -4.546875 0.609375zm33.54706 0q-3.078125 0 -5.484375 -1.078125q-2.390625 -1.09375 -4.03125 -3.015625q-1.625 -1.921875 -2.5 -4.484375q-0.859375 -2.5625 -0.859375 -5.5q0 -3.96875 1.53125 -7.640629q1.546875 -3.6875 4.234375 -6.53125q2.6875 -2.859375 6.359375 -4.578125q3.6875 -1.734375 7.984375 -1.734375q2.171875 0 4.125 0.578125q1.953125 0.578125 3.390625 1.703125q1.4375 1.109375 2.265625 2.8125q0.828125 1.6875 0.828125 3.875q0 4.921875 -4.359375 7.421879q-4.34375 2.484375 -13.421875 2.484375q-1.796875 0 -3.875 -0.0625q-2.078125 -0.0625 -4.515625 -0.25q-0.0625 0.515625 -0.09375 0.96875q-0.03125 0.4375 -0.03125 0.890625q0 2.171875 0.578125 4.125q0.578125 1.953125 1.71875 3.453125q1.15625 1.5 2.875 2.375q1.734375 0.859375 4.046875 0.859375q1.53125 0 3.125 -0.4375q1.609375 -0.453125 3.046875 -1.25q1.4375 -0.8125 2.65625 -1.953125q1.21875 -1.15625 2.046875 -2.5625l3.59375 1.078125q-1.15625 1.859375 -2.828125 3.4375q-1.65625 1.5625 -3.671875 2.6875q-2.015625 1.109375 -4.234375 1.71875q-2.203125 0.609375 -4.5 0.609375zm6.78125 -31.171879q-2.875 0 -5.25 1.03125q-2.375 1.015625 -4.234375 2.6875q-1.84375 1.65625 -3.125 3.84375q-1.28125 2.171875 -1.921875 4.468754q2.3125 0.125 4.25 0.234375q1.953125 0.09375 3.75 0.09375q3.78125 0 6.40625 -0.5156288q2.625 -0.515625 4.21875 -1.40625q1.59375 -0.890625 2.296875 -2.171875q0.71875 -1.28125 0.71875 -2.765625q0 -2.875 -2.125 -4.1875q-2.109375 -1.3125 -4.984375 -1.3125z" fill-rule="nonzero"/><path fill="#0b5394" d="m181.8648 49.3141l4.03125 0l-1.65625 7.546875q2.6875 -3.765625 6.296875 -5.9375q3.625 -2.1875 7.40625 -2.1875q3.828125 0 5.71875 2.28125q1.890625 2.265625 1.890625 6.421875q2.8125 -4.28125 6.484375 -6.484375q3.6875 -2.21875 7.53125 -2.21875q4.03125 0 5.71875 2.1875q1.703125 2.171875 1.703125 6.0q0 2.765625 -0.765625 6.21875l-4.15625 19.515629l-4.359375 0l3.90625 -18.625q0.328125 -1.4687538 0.484375 -2.7812538q0.15625 -1.3125 0.15625 -2.40625q0 -6.140625 -5.0625 -6.140625q-1.78125 0 -3.546875 0.703125q-1.765625 0.703125 -3.359375 1.984375q-1.59375 1.28125 -2.96875 3.046875q-1.375 1.75 -2.40625 3.859375l-4.28125 20.359379l-4.359375 0l3.90625 -18.625q0.3125 -1.5937538 0.5 -2.9062538q0.203125 -1.3125 0.203125 -2.40625q0 -6.015625 -5.0625 -6.015625q-3.578125 0 -6.90625 2.625q-3.328125 2.625 -5.4375 6.90625l-4.296875 20.421879l-4.34375 0l7.03125 -33.343754zm62.020035 33.98438q-2.8125 0 -5.0 -1.109375q-2.171875 -1.125 -3.703125 -3.046875q-1.53125 -1.921875 -2.34375 -4.453125q-0.796875 -2.53125 -0.796875 -5.34375q0 -3.96875 1.53125 -7.671879q1.546875 -3.71875 4.109375 -6.59375q2.5625 -2.890625 5.890625 -4.609375q3.328125 -1.734375 6.96875 -1.734375q4.03125 0 6.6562653 2.21875q2.625 2.203125 3.71875 5.328125l1.53125 -6.96875l4.359375 0l-5.890625 27.640629q-0.125 0.515625 -0.125 0.84375q0 1.015625 1.203125 1.015625l-0.828125 3.84375q-0.515625 0.0625 -0.96875 0.125q-0.4375 0.0625 -0.765625 0.0625q-1.46875 -0.125 -2.203125 -0.796875q-0.734375 -0.671875 -0.734375 -1.765625q0 -0.5 0.15625 -1.328125q0.171875 -0.84375 0.546875 -2.765625q-2.5625153 3.265625 -6.1875153 5.1875q-3.609375 1.921875 -7.125 1.921875zm1.796875 -3.84375q1.59375 0 3.453125 -0.640625q1.859375 -0.640625 3.546875 -1.75q1.703125 -1.125 3.078125 -2.625q1.3750153 -1.515625 2.0156403 -3.234375l2.109375 -10.312504q-0.1875 -1.71875 -1.03125 -3.21875q-0.828125 -1.515625 -2.046875 -2.625q-1.2031403 -1.125 -2.7500153 -1.796875q-1.53125 -0.671875 -3.1875 -0.671875q-2.890625 0 -5.484375 1.4375q-2.578125 1.4375 -4.53125 3.75q-1.953125 2.296875 -3.109375 5.1875q-1.15625 2.8750038 -1.15625 5.750004q0 2.234375 0.640625 4.1875q0.640625 1.953125 1.859375 3.40625q1.21875 1.4375 2.875 2.296875q1.671875 0.859375 3.71875 0.859375zm30.646927 -30.140629l4.03125 0l-1.65625 7.546875q1.34375 -1.78125 3.09375 -3.28125q1.765625 -1.515625 3.71875 -2.59375q1.953125 -1.09375 4.0625 -1.671875q2.109375 -0.578125 4.234375 -0.578125q3.890625 0 5.546875 2.109375q1.671875 2.109375 1.671875 5.828125q0 1.46875 -0.21875 3.046875q-0.21875 1.5625 -0.609375 3.421875l-4.09375 19.515629l-4.34375 0l3.96875 -18.625q0.625 -3.1406288 0.625 -5.437504q0 -5.890625 -4.984375 -5.890625q-1.796875 0 -3.75 0.703125q-1.953125 0.703125 -3.78125 1.984375q-1.8125 1.28125 -3.359375 3.046875q-1.53125 1.75 -2.546875 3.796875l-4.296875 20.421879l-4.3437195 0l7.0312195 -33.343754z" fill-rule="nonzero"/></g></svg>